Coordinates
version=1
nRows=9
nColumns=63
inDegrees=yes

Units are S.I. units (second, meters, Newtons, ...)
If the header above contains a line with 'inDegrees', this indicates whether rotational values are in degrees (yes) or radians (no).

endheader
time	pelvis_tilt	pelvis_list	pelvis_rotation	pelvis_tx	pelvis_ty	pelvis_tz	hip_flexion_r	hip_adduction_r	hip_rotation_r	knee_angle_r	knee_angle_r_beta	ankle_angle_r	subtalar_angle_r	mtp_angle_r	hip_flexion_l	hip_adduction_l	hip_rotation_l	knee_angle_l	knee_angle_l_beta	ankle_angle_l	subtalar_angle_l	mtp_angle_l	L5_S1_Flex_Ext	L5_S1_Lat_Bending	L5_S1_axial_rotation	L4_L5_Flex_Ext	L4_L5_Lat_Bending	L4_L5_axial_rotation	L3_L4_Flex_Ext	L3_L4_Lat_Bending	L3_L4_axial_rotation	L2_L3_Flex_Ext	L2_L3_Lat_Bending	L2_L3_axial_rotation	L1_L2_Flex_Ext	L1_L2_Lat_Bending	L1_L2_axial_rotation	L1_T12_Flex_Ext	L1_T12_Lat_Bending	L1_T12_axial_rotation	Abs_r3	Abs_r2	Abs_r1	Abs_t1	Abs_t2	neck_flexion	neck_bending	neck_rotation	arm_flex_r	arm_add_r	arm_rot_r	elbow_flex_r	pro_sup_r	wrist_flex_r	wrist_dev_r	arm_flex_l	arm_add_l	arm_rot_l	elbow_flex_l	pro_sup_l	wrist_flex_l	wrist_dev_l
      3.60784314	      9.79291835	     13.91536471	    132.52816732	      0.17397093	      0.77244615	      0.83561159	      7.43995207	      8.82289210	    -17.72460789	     20.11238101	      0.35102727	     26.02692433	      9.03957063	      0.00000000	      6.57207051	    -10.74971325	      4.59045091	     18.41399927	      0.32138492	     21.49216130	    -13.59338413	      0.00000000	     -1.12874403	      2.37536297	     10.60507859	     -2.09619054	      3.15923275	     11.26789600	     -1.85441357	      5.77545753	     11.26789600	     -1.29004156	      5.77545753	      9.27944377	     -1.04815171	      4.84384017	      8.61662635	     -0.64496434	      3.67943724	      7.95380894	     -8.06250576	     26.87058101	     58.98226560	      0.00000000	      0.00000000	     -6.77870584	      0.55927348	    -44.84100746	    -36.41873620	      0.93221833	    -61.53957051	     97.43308699	     76.91925167	     -1.39695288	     11.58248466	     49.12411474	     38.04567650	    209.18511185	      0.02909440	      0.53914926	    -69.94503774	    -24.72863180
      3.62745098	     11.86909526	     11.22774837	    130.04354702	      0.16275835	      0.77806422	      0.82414428	      8.83765063	      8.58248398	    -17.84795269	     18.22543261	      0.31809381	     24.69081582	     11.48097893	      0.00000000	      7.43421702	    -10.44488207	      4.68086548	     16.63417561	      0.29032113	     18.74431399	    -15.79237375	      0.00000000	     -0.91084741	      2.41535664	      9.59753520	     -1.69153473	      3.21242432	     10.19738115	     -1.49643121	      5.87269812	     10.19738115	     -1.04100751	      5.87269812	      8.39784330	     -0.84581291	      4.92539525	      7.79799735	     -0.52045821	      3.74138743	      7.19815140	     -6.50609197	     27.32299733	     53.37861153	      0.00000000	      0.00000000	    -12.67833435	    -11.29643815	    -44.58432722	    -34.32964200	     -0.90299206	    -57.57864797	     95.42329227	     80.05516983	      5.28061608	     16.42606097	     32.84929836	     22.77411877	    207.17862933	      0.03735650	      0.54180106	    -69.94442652	    -24.67732031
      3.64705882	     22.72323535	     -0.81953950	    122.69775811	      0.12301644	      0.75346391	      0.77254621	     19.87653017	     10.89643529	    -14.64764055	     16.20032590	      0.28274903	     28.38515698	     16.46352128	      0.00000000	     16.66618769	    -12.42377516	      2.23369054	     13.89714924	      0.24255101	     23.91450174	    -17.54830873	      0.00000000	      0.47023352	      2.30306339	     -0.50978272	      0.87327068	      3.06307431	     -0.54164414	      0.77254666	      5.59966833	     -0.54164414	      0.53742989	      5.59966833	     -0.44605988	      0.43665885	      4.69640687	     -0.41419846	      0.26869144	      3.56744520	     -0.38233704	      3.35883104	     26.05271371	     -2.83525857	      0.00000000	      0.00000000	      7.68074289	    -23.75118939	     17.57671924	     -4.92656263	    -22.93380030	      8.80138368	     81.13677507	     84.57310884	      8.95045001	     25.56937777	    -13.96715656	      5.78746744	    151.88254161	      0.07418457	      0.67366915	    -69.92023601	    -24.45099050
      3.66666667	     18.64695246	     -1.91595307	    121.82989875	      0.15494781	      0.73275415	      0.77109051	     22.97076510	      8.94184862	     -8.84654925	     22.74841818	      0.39703480	     35.82345587	      9.97568709	      0.00000000	     18.87951010	    -10.02048459	      4.59462993	     19.84200300	      0.34630828	     30.54411318	    -17.77555464	      0.00000000	      0.22687631	      1.06060947	      0.54790872	      0.42133200	      1.41061059	      0.58215302	      0.37273510	      2.57876586	      0.58215302	      0.25929694	      2.57876586	      0.47942013	      0.21067734	      2.16279482	      0.44517584	      0.12963713	      1.64288406	      0.41093154	      1.62055482	     11.99782641	      3.04730395	      0.00000000	      0.00000000	     11.05667901	     -7.60015699	    -11.02309028	     -6.03153358	    -15.47833262	      4.82167355	     78.00666906	     86.55223305	     12.55146557	     25.07453599	    -11.01888773	      2.11468037	    137.17753783	      0.41711051	      1.07355470	    -69.77469877	     34.43944806
      3.68627451	     11.75302674	     -5.91650036	    118.32207930	      0.18547444	      0.72091785	      0.76300384	     27.04496423	      5.21981280	      1.40554483	     29.81569704	      0.52038208	     40.60274104	      2.36676012	      0.00000000	     19.41007503	     -4.59602304	      1.79548752	     21.94533170	      0.38301829	     33.42920793	    -15.71965163	      0.00000000	      0.05454973	     -0.45250833	      1.74104372	      0.10130430	     -0.60183608	      1.84985895	      0.08961975	     -1.10022875	      1.84985895	      0.06234488	     -1.10022875	      1.52341325	      0.05065488	     -0.92275498	      1.41459802	      0.03116971	     -0.70093540	      1.30578279	      0.38964324	     -5.11886472	      9.68316283	      0.00000000	      0.00000000	     16.35513627	      1.40281979	    -29.55566891	     -6.06389003	     -7.35194193	      3.27323400	     74.07072713	     87.98237221	     13.96498464	     24.20028598	     -7.30786122	    -15.23024118	     99.64666116	     11.26635705	     10.68356332	     -8.17048880	     -2.28618781
      3.70588235	      3.53713225	    -10.92749306	    113.02322077	      0.21232297	      0.71093065	      0.75482177	     32.00510150	      1.07577318	     11.93944197	     36.60890956	      0.63894601	     44.10956624	     -2.92642391	      0.00000000	     19.92549164	      1.74149053	     -4.90498949	     21.68705735	      0.37851056	     35.64959607	     -9.33282218	      0.00000000	      0.03937391	     -2.05438976	      2.58163103	      0.07312128	     -2.73233838	      2.74298297	      0.06468739	     -4.99504327	      2.74298297	      0.04500044	     -4.99504327	      2.25892715	      0.03656261	     -4.18931160	      2.09757521	      0.02249825	     -3.18224974	      1.93622327	      0.28124388	    -23.23966786	     14.35825728	      0.00000000	      0.00000000	     21.93268410	      7.45747099	    -41.35248084	     -4.60643718	     -0.45391566	      5.40837341	     70.56121710	     88.64633271	     13.40712307	     23.50307570	     -5.04068892	    -22.98227598	    106.15482358	      9.16090486	      4.73929161	     -8.00359460	     -3.40379792
      3.72549020	     -0.26210512	    -12.39718929	    109.69489649	      0.22247534	      0.70668487	      0.75230184	     33.84801860	     -0.31875242	     16.21601943	     39.19103502	      0.68401260	     45.75918572	     -4.91801367	      0.00000000	     19.74545345	      4.22536188	     -7.67888283	     21.16856658	      0.36946118	     37.67720037	     -3.73387405	      0.00000000	      0.07568593	     -2.65631462	      2.72543932	      0.14055633	     -3.53289844	      2.89577928	      0.12434441	     -6.45856337	      2.89577928	      0.08650145	     -6.45856337	      2.38475941	      0.07028195	     -5.41675677	      2.21441945	      0.04324694	     -4.11463135	      2.04407949	      0.54061700	    -30.04876224	     15.15807587	      0.00000000	      0.00000000	     25.01466593	      9.50622322	    -43.28669342	     -2.69952430	      1.34977707	      9.89900150	     67.30127408	     88.98671152	     11.32878182	     23.12142052	     -3.59276825	    -25.86816108	    106.30681854	      8.93097988	      3.69872569	     -7.61315437	     -4.95915822
      3.74509804	      0.76895843	    -11.02407354	    109.10028812	      0.21932936	      0.70778277	      0.75391426	     32.84700158	      0.69360628	     15.13059430	     38.43105634	      0.67074847	     46.26460289	     -5.70471940	      0.00000000	     18.84797476	      2.92341307	     -5.93799051	     21.05518588	      0.36748232	     39.67919108	     -0.20188018	      0.00000000	      0.06110702	     -2.37158307	      2.35458156	      0.11348184	     -3.15420548	      2.50174291	      0.10039272	     -5.76626707	      2.50174291	      0.06983921	     -5.76626707	      2.06025887	      0.05674398	     -4.83613219	      1.91309752	      0.03491655	     -3.67358217	      1.76593617	      0.43648131	    -26.82782196	     13.09547628	      0.00000000	      0.00000000	     25.70885039	      8.24513682	    -42.74175482	     -0.47707537	     -0.42161436	     15.56176134	     63.33247772	     89.17081587	      8.37128414	     22.27551502	     -2.27631773	    -24.06612260	    105.52625470	      8.49891987	      3.37006946	     -7.31195133	     -6.78690539
      3.76470588	      4.46285289	     -8.38638203	    109.10488233	      0.20916990	      0.71168775	      0.75734243	     30.48318814	      3.29913477	     11.60548861	     35.64150870	      0.62206168	     45.96582363	     -5.13463910	      0.00000000	     17.68874123	     -0.60555029	     -2.45717648	     21.12941280	      0.36877782	     41.43968773	      1.65065087	      0.00000000	      0.04394408	     -1.59925938	      1.82954489	      0.08160855	     -2.12701497	      1.94389145	      0.07219573	     -3.88843925	      1.94389145	      0.05022369	     -3.88843925	      1.60085178	      0.04080647	     -3.26120972	      1.48650522	      0.02510965	     -2.47725278	      1.37215867	      0.31388816	    -18.09114193	     10.17537982	      0.00000000	      0.00000000	     25.71569665	      5.39334955	    -39.68718549	      1.98318034	     -4.29579706	     22.84006469	     59.24724874	     89.28020626	      2.74031614	     18.95439341	     -0.69958819	    -19.56011941	    105.28968583	      7.56736866	      3.54460597	     -7.40834013	     -9.12736154
